<?xml version="1.0" standalone="no"?>
<!DOCTYPE svg PUBLIC "-//W3C//DTD SVG 20010904//EN"
 "http://www.w3.org/TR/2001/REC-SVG-20010904/DTD/svg10.dtd">
<svg version="1.0" xmlns="http://www.w3.org/2000/svg"
 width="300.000000pt" height="300.000000pt" viewBox="0 0 300.000000 300.000000"
 preserveAspectRatio="xMidYMid meet">
<metadata>
Created by potrace 1.10, written by Peter Selinger 2001-2011
</metadata>
<g transform="translate(0.000000,300.000000) scale(0.100000,-0.100000)"
fill="#000000" stroke="none">
<path d="M192 2908 l-2 -97 -62 -4 -63 -3 68 -2 67 -2 0 -100 c0 -89 -2 -100
-17 -100 -12 0 -14 -3 -6 -8 6 -4 13 -28 16 -52 l4 -45 1 53 2 52 100 0 100 0
2 -47 1 -48 4 42 c3 33 8 43 26 46 18 4 17 5 -5 6 l-28 1 0 100 0 100 43 2 42
1 -37 4 -37 4 -4 97 -3 97 -2 -102 -2 -103 -100 0 -99 0 -4 103 -3 102 -2 -97z
m198 -208 l0 -90 -90 0 -90 0 0 90 0 90 90 0 90 0 0 -90z"/>
<path d="M802 2903 l-2 -103 -100 0 -100 0 -2 58 -2 57 -3 -52 c-4 -52 -4 -52
-41 -56 l-37 -4 43 -1 42 -2 0 -100 0 -100 -37 -1 -38 -2 35 -6 c19 -3 40 -2
45 3 6 5 9 48 7 102 l-3 94 91 0 91 0 -2 -50 c-2 -27 0 -52 3 -55 3 -3 6 21 7
52 1 31 5 60 9 63 4 3 4 50 1 105 l-5 100 -2 -102z"/>
<path d="M1202 2903 l-2 -103 -100 0 -100 0 -2 58 -2 57 -3 -52 c-4 -47 -6
-52 -31 -56 -25 -4 -24 -4 6 -6 l32 -1 0 -100 0 -100 -42 -1 -43 -2 40 -6 c22
-3 42 -3 43 2 2 4 36 8 75 9 l72 2 -67 3 -68 4 0 89 0 90 89 0 90 0 4 -32 c4
-32 4 -32 5 5 l2 37 100 0 100 0 1 -27 c1 -23 2 -24 6 -6 4 20 12 22 71 26
l67 3 -72 2 -73 2 -2 103 -2 102 -3 -97 -4 -98 -89 0 -89 0 -4 98 -3 97 -2
-102z"/>
<path d="M1793 2905 c0 -55 2 -113 6 -130 l7 -30 6 28 c3 15 2 27 -3 27 -5 0
-10 46 -12 103 l-3 102 -1 -100z"/>
<path d="M2002 2903 l-2 -103 -67 -2 -68 -2 62 -3 62 -4 4 -82 3 -82 2 88 2
87 100 0 100 0 2 -62 2 -63 3 58 4 57 89 0 89 0 4 -27 c4 -26 4 -26 6 5 l1 32
100 0 100 0 2 -47 1 -48 4 43 4 42 89 0 89 0 4 -27 c4 -26 4 -26 6 5 l1 32
103 2 102 2 -100 5 c-55 3 -101 3 -103 -1 -2 -5 -48 -8 -103 -8 l-99 0 -2 103
-2 102 -3 -98 -4 -98 -94 3 c-52 2 -95 0 -95 -4 0 -5 -45 -8 -100 -8 l-100 0
-2 103 -2 102 -3 -97 -4 -98 -89 0 -89 0 -4 98 -3 97 -2 -102z"/>
<path d="M1595 2806 c-6 -6 -7 -33 -4 -61 l6 -50 1 52 c2 40 6 52 20 55 14 3
14 5 2 10 -8 3 -20 0 -25 -6z"/>
<path d="M2392 2673 l-2 -62 -82 -4 -83 -3 89 -2 89 -2 -4 -137 c-3 -76 -3
-121 -1 -100 l3 37 100 0 99 0 0 -100 c0 -89 -2 -100 -17 -100 -15 0 -16 -2
-3 -10 10 -6 16 -6 18 0 2 6 48 10 103 10 l99 0 0 -100 0 -100 -32 -1 c-31 -2
-31 -2 -5 -6 l27 -4 0 -89 c0 -84 -1 -89 -22 -93 -20 -4 -19 -4 5 -6 l27 -1 0
-99 c0 -55 -4 -101 -8 -103 -5 -1 -5 -14 -1 -28 l7 -25 1 28 1 27 103 2 102 2
-97 3 -98 4 0 89 c0 61 4 90 13 93 7 3 5 6 -5 6 -16 1 -18 13 -18 101 l0 100
103 2 102 2 -97 3 -98 4 0 89 0 89 98 4 97 3 -102 2 -103 2 0 100 0 100 103 2
102 2 -97 3 -98 4 0 89 0 89 98 4 97 3 -102 2 -103 2 -2 68 -2 67 -3 -62 -4
-63 -89 0 -89 0 -4 48 -3 47 -2 -52 -2 -53 -100 0 -99 0 -4 68 -3 67 -2 -62z
m408 -173 l0 -100 -32 -1 c-31 -2 -31 -2 -5 -6 l27 -4 0 -90 0 -89 -90 0 -90
0 0 90 0 89 63 4 62 3 -67 2 -68 2 0 100 0 100 100 0 100 0 0 -100z m-210 0
l0 -90 -90 0 -90 0 0 90 0 90 90 0 90 0 0 -90z"/>
<path d="M791 2638 c-1 -21 -7 -28 -28 -31 -26 -4 -26 -4 5 -6 28 -1 32 -5 33
-28 l1 -28 7 25 c4 14 4 27 0 30 -4 3 -9 19 -12 35 -4 29 -4 29 -6 3z"/>
<path d="M800 2495 c0 -19 3 -34 8 -34 23 4 32 -4 32 -26 0 -17 -6 -25 -17
-26 -61 -4 -85 -8 -91 -14 -4 -5 4 -5 17 -2 14 3 31 1 38 -5 9 -7 13 -7 13 1
0 6 3 10 8 10 19 -3 65 3 55 8 -20 8 -15 40 9 57 24 17 13 22 -11 7 -25 -16
-54 6 -47 35 4 14 2 24 -4 24 -5 0 -10 -16 -10 -35z"/>
<path d="M1850 2498 c14 -5 33 -14 43 -20 11 -5 21 -7 23 -5 9 8 -21 24 -56
30 -31 5 -32 5 -10 -5z"/>
<path d="M192 2453 c-2 -41 -3 -42 -39 -46 l-38 -4 43 -1 42 -2 2 -87 2 -88 3
80 c3 47 9 82 16 87 8 5 7 8 -5 8 -13 0 -18 11 -21 48 l-3 47 -2 -42z"/>
<path d="M1870 2456 c0 -3 9 -15 20 -26 11 -11 17 -26 14 -35 -8 -19 0 -19 20
0 18 18 66 10 66 -11 0 -8 6 -14 14 -14 23 0 7 36 -20 49 -17 8 -31 8 -44 1
-14 -8 -22 -6 -32 8 -14 19 -38 37 -38 28z"/>
<path d="M1798 2443 c13 -3 21 -10 19 -16 -3 -7 -10 -11 -16 -9 -6 1 -11 -2
-11 -8 0 -5 -7 -10 -15 -10 -8 0 -15 -6 -15 -13 0 -15 41 -57 55 -57 5 0 -1 9
-13 20 -24 23 -27 35 -12 45 6 3 10 -1 10 -9 0 -8 5 -18 11 -22 9 -5 10 1 5
20 -5 19 -3 26 8 26 9 0 12 7 9 20 -4 14 -13 20 -32 19 -24 -2 -24 -2 -3 -6z"/>
<path d="M1853 2429 c10 -6 14 -15 10 -22 -4 -7 -9 -21 -10 -32 -2 -10 -9 -23
-16 -27 -6 -4 -7 -8 -2 -8 18 0 38 18 31 28 -3 6 -2 13 4 17 16 10 12 42 -6
49 -24 9 -31 7 -11 -5z"/>
<path d="M401 2418 c-1 -16 -13 -18 -83 -20 l-83 -2 77 -3 77 -4 4 -87 3 -87
2 93 2 92 100 0 100 0 1 -37 c2 -35 2 -35 6 -8 3 16 10 33 16 37 8 5 6 8 -5 8
-10 0 -18 8 -19 18 0 10 -3 12 -6 5 -3 -9 -32 -13 -93 -13 -61 0 -90 4 -93 13
-3 7 -6 5 -6 -5z"/>
<path d="M2031 2372 c-10 -19 -9 -22 6 -22 10 0 31 -16 46 -35 16 -21 23 -35
15 -35 -22 1 -51 28 -42 41 4 8 3 10 -4 5 -7 -4 -12 -2 -12 3 0 6 -5 11 -11
11 -5 0 -7 -4 -4 -10 3 -5 0 -10 -7 -11 -9 0 -9 -2 2 -7 45 -20 70 -45 65 -63
-10 -30 2 -22 19 12 12 25 13 35 3 51 -16 27 -47 60 -48 51 0 -5 -4 1 -8 12
-8 19 -8 19 -20 -3z"/>
<path d="M2126 2336 c31 -34 56 -53 67 -51 18 3 57 -38 57 -60 0 -7 12 -16 28
-21 20 -5 23 -8 10 -11 -10 -3 -18 -8 -18 -13 0 -5 6 -7 13 -4 19 7 49 -25 77
-83 14 -28 33 -54 43 -56 16 -5 15 -1 -4 31 -43 72 -122 171 -132 165 -6 -3
-7 -1 -4 4 7 12 -56 73 -115 113 -21 14 -38 28 -38 33 0 4 -7 7 -17 7 -11 0
-1 -17 33 -54z"/>
<path d="M946 2354 c-35 -24 -90 -78 -161 -159 -37 -42 -97 -133 -119 -180
-11 -22 -23 -48 -27 -57 -5 -10 -9 -24 -9 -32 0 -8 -6 -17 -12 -19 -10 -4 -10
-6 0 -6 7 -1 15 7 18 17 3 9 12 28 20 42 8 14 24 44 34 68 11 23 26 45 35 48
8 4 15 11 15 17 0 15 65 93 144 173 120 121 129 133 62 88z"/>
<path d="M1104 2345 c-4 -8 -12 -15 -19 -15 -15 0 -45 -32 -45 -48 0 -7 7 -12
16 -12 10 0 14 6 11 14 -3 7 7 23 24 35 26 20 29 20 30 4 0 -16 1 -15 8 2 5
11 7 23 4 28 -7 12 -23 8 -29 -8z"/>
<path d="M1726 2350 c12 -5 28 -18 36 -29 8 -12 17 -18 21 -15 10 10 -36 54
-57 53 -21 0 -21 0 0 -9z"/>
<path d="M1010 2305 c-7 -8 -16 -12 -21 -10 -10 7 -44 -43 -35 -52 11 -11 39
11 58 45 19 34 18 41 -2 17z"/>
<path d="M1980 2281 c0 -8 -3 -12 -6 -9 -3 4 -21 0 -41 -8 -19 -8 -43 -12 -54
-9 -11 4 -26 1 -34 -5 -8 -6 -20 -8 -26 -4 -9 5 -10 2 -6 -10 4 -10 7 -23 7
-28 0 -6 3 -8 8 -4 4 4 7 13 7 19 0 7 14 12 32 12 17 0 35 3 39 8 13 13 36 8
31 -8 -4 -8 -2 -17 3 -20 6 -4 10 4 10 17 0 33 43 36 58 5 8 -16 11 -18 11 -6
1 9 -8 27 -19 40 -12 16 -19 19 -20 10z"/>
<path d="M2388 2274 c-5 -4 -8 -14 -8 -22 0 -9 -7 -24 -17 -34 -19 -21 -6 -24
20 -4 12 9 17 24 15 41 -2 15 -6 23 -10 19z"/>
<path d="M1123 2245 c-1 -16 6 -38 15 -48 8 -9 12 -20 9 -24 -4 -3 -7 -1 -7 5
0 7 -5 12 -11 12 -8 0 -8 -4 0 -13 6 -8 23 -12 42 -9 28 4 30 2 24 -17 -4 -12
-2 -21 4 -21 6 0 10 5 9 11 -2 6 8 13 21 15 26 5 53 33 44 47 -3 5 3 15 13 23
18 14 17 14 -4 4 -13 -6 -21 -17 -19 -25 3 -7 -5 -17 -19 -23 -20 -10 -25 -8
-35 9 -8 15 -18 20 -42 17 -24 -2 -33 1 -35 15 -3 15 0 18 18 12 15 -5 20 -4
16 4 -4 6 -13 11 -21 11 -7 0 -15 6 -18 13 -2 6 -4 -1 -4 -18z"/>
<path d="M1180 2260 c-20 -13 5 -20 36 -10 16 4 27 9 24 10 -14 7 -50 6 -60 0z"/>
<path d="M2152 2228 c1 -16 8 -28 15 -28 7 0 18 -9 25 -20 7 -11 20 -20 28
-20 11 0 8 6 -8 18 -12 10 -32 31 -42 47 l-20 30 2 -27z"/>
<path d="M933 2227 c4 -12 1 -20 -11 -24 -35 -12 -52 -34 -42 -54 7 -12 7 -20
0 -24 -5 -3 -10 -3 -10 1 0 3 -7 1 -15 -6 -11 -9 -14 -22 -10 -42 4 -15 4 -28
0 -28 -10 0 -35 28 -35 39 0 14 -17 14 -26 0 -3 -6 -1 -15 6 -19 7 -4 10 -17
7 -29 -3 -12 -1 -21 3 -21 5 0 11 8 13 18 4 16 5 16 6 0 2 -27 17 -22 42 14
13 17 17 28 10 24 -9 -6 -12 -3 -9 10 2 11 12 19 23 19 17 0 20 6 17 38 -3 27
0 37 11 37 7 0 21 8 30 18 14 15 14 18 -1 32 -14 13 -15 12 -9 -3z"/>
<path d="M200 2208 c0 -4 -30 -9 -67 -10 l-68 -2 62 -3 c54 -3 62 -7 66 -26 4
-19 4 -18 6 5 1 23 6 27 39 30 l37 3 -37 6 c-21 3 -38 1 -38 -3z"/>
<path d="M2044 2201 c11 -11 16 -24 13 -28 -4 -3 -7 -1 -7 6 0 7 -4 10 -9 7
-5 -4 -11 0 -14 6 -2 7 -7 10 -11 7 -11 -10 4 -37 25 -42 14 -4 23 1 31 19 12
26 34 34 24 9 -3 -8 -1 -15 5 -15 6 0 9 -6 6 -14 -8 -20 13 -42 47 -50 26 -6
28 -5 17 8 -11 13 -11 16 3 16 17 0 33 -26 23 -37 -10 -9 -75 7 -91 22 -11 12
-15 12 -19 1 -7 -18 8 -42 17 -27 10 16 46 -5 46 -27 0 -25 30 -40 68 -34 29
4 47 22 21 22 -20 0 -39 26 -26 39 15 15 27 14 49 -6 17 -15 18 -15 18 5 0 24
-41 53 -48 33 -7 -20 -24 -11 -19 10 5 17 2 20 -14 16 -12 -3 -19 0 -19 9 0 8
-4 14 -10 14 -5 0 -10 -6 -10 -13 0 -7 -9 -18 -19 -24 -16 -10 -20 -9 -25 4
-4 11 -2 14 9 9 21 -8 19 2 -11 42 -18 23 -29 30 -34 22 -6 -9 -13 -9 -31 0
-24 13 -24 13 -5 -9z"/>
<path d="M570 2200 c-30 -6 -32 -8 -8 -9 16 0 28 -8 31 -18 4 -14 5 -13 6 4 1
16 9 23 29 26 25 4 25 4 2 4 -14 0 -41 -3 -60 -7z"/>
<path d="M1913 2188 c-1 -13 4 -18 14 -16 24 4 27 25 5 30 -12 4 -18 -1 -19
-14z"/>
<path d="M1735 2180 c-3 -11 -11 -20 -16 -20 -5 0 -9 -4 -9 -10 0 -5 7 -10 15
-10 8 0 15 -4 15 -10 0 -5 -6 -10 -12 -10 -7 0 -1 -11 12 -24 14 -13 31 -21
38 -18 6 2 12 -1 12 -7 0 -14 37 -15 45 -1 4 6 3 10 -2 9 -4 -1 -19 2 -32 7
-23 7 -24 8 -5 15 15 6 14 8 -11 9 l-30 0 23 18 23 18 -23 19 c-19 17 -21 17
-8 2 12 -16 12 -20 0 -27 -21 -13 -30 -2 -23 30 6 34 -2 41 -12 10z"/>
<path d="M1844 2168 c1 -35 16 -57 16 -23 0 17 9 19 29 6 12 -8 13 -12 1 -26
-7 -9 -18 -14 -25 -11 -7 2 -12 -7 -12 -25 0 -15 4 -26 9 -23 4 3 8 -6 8 -20
0 -14 5 -28 11 -32 6 -3 10 1 9 12 -4 37 0 39 23 11 l22 -29 20 22 19 21 -25
-6 c-18 -4 -30 -1 -40 11 -12 16 -12 17 4 11 11 -4 16 -3 12 3 -3 6 1 10 10
10 9 0 13 5 10 11 -4 6 -13 8 -20 5 -7 -2 -16 2 -19 10 -12 31 25 26 54 -6 17
-19 32 -31 35 -29 3 3 -5 16 -18 29 -12 14 -23 33 -23 44 -1 18 0 18 11 3 6
-9 15 -14 18 -10 4 3 7 -2 7 -13 1 -27 26 -59 33 -42 4 10 9 9 17 -4 6 -10 23
-18 38 -17 l27 0 -25 12 c-35 15 -36 17 -21 26 10 6 9 12 -5 25 -12 13 -19 14
-24 5 -4 -6 -13 -8 -19 -5 -6 4 -9 11 -7 15 3 4 -8 12 -24 18 -23 9 -32 8 -40
-2 -14 -16 -40 -9 -40 11 0 8 -10 14 -24 14 -13 0 -26 6 -29 13 -2 6 -3 -5 -3
-25z"/>
<path d="M1005 2180 c-4 -6 -11 -7 -17 -4 -6 4 -8 1 -6 -7 3 -8 11 -13 17 -11
6 1 11 -2 11 -8 0 -5 10 -10 23 -10 22 1 22 1 2 16 -11 8 -19 20 -17 25 3 12
-5 12 -13 -1z"/>
<path d="M1087 2164 c-6 -34 7 -64 28 -64 8 0 15 -5 15 -10 0 -6 -7 -10 -16
-8 -10 2 -19 -3 -22 -11 -3 -10 2 -11 19 -6 29 9 25 6 33 31 6 19 3 21 -20 16
-25 -5 -27 -3 -21 25 3 16 2 35 -2 42 -6 9 -10 4 -14 -15z"/>
<path d="M1433 2154 c18 -22 12 -41 -8 -24 -9 7 -20 4 -36 -10 l-24 -21 24 11
c16 9 26 9 30 1 11 -17 51 -9 51 10 0 10 8 20 18 22 9 3 3 5 -13 6 -17 0 -37
7 -45 14 -8 6 -7 3 3 -9z"/>
<path d="M1530 2159 c-25 -9 -25 -9 3 -5 30 4 45 -10 29 -26 -6 -6 -12 -6 -16
0 -4 7 -15 6 -31 -1 -30 -14 -32 -27 -5 -27 13 0 25 -11 34 -32 14 -32 14 -32
17 -8 1 14 3 30 4 35 2 6 3 16 4 23 0 6 6 12 12 12 5 0 8 -4 5 -9 -4 -5 4 -7
16 -3 22 5 22 4 5 -15 -9 -11 -14 -23 -11 -26 4 -4 1 -13 -6 -22 -17 -21 3
-20 35 1 14 9 25 12 25 6 0 -11 37 -25 61 -23 10 1 15 -6 15 -20 -1 -12 5 -24
12 -26 6 -3 12 3 12 12 0 9 5 13 10 10 6 -3 10 -1 10 5 0 7 -8 9 -19 5 -14 -4
-19 -1 -17 12 1 12 -10 19 -42 26 -37 7 -41 11 -31 23 9 11 14 12 19 3 6 -8 9
-8 14 0 4 6 2 11 -4 11 -6 0 -8 5 -5 10 13 20 -13 9 -27 -12 -12 -17 -18 -19
-34 -10 -16 10 -17 11 -2 12 10 0 22 9 28 20 8 16 17 19 33 14 19 -6 20 -5 9
9 -10 12 -10 16 0 20 7 3 3 4 -9 4 -12 -1 -19 -5 -17 -9 6 -10 -37 -27 -60
-24 -20 3 -33 16 -16 16 19 0 3 13 -18 16 -9 1 -28 -2 -42 -7z"/>
<path d="M1302 2130 c34 -34 38 -36 38 -14 0 9 -9 18 -20 21 -11 3 -20 9 -20
14 0 5 -6 9 -14 9 -9 0 -3 -11 16 -30z"/>
<path d="M952 2123 c-3 -33 -11 -42 -22 -23 -8 13 -10 12 -10 -2 0 -11 -5 -15
-15 -12 -18 7 -20 -7 -3 -24 9 -9 8 -12 -7 -12 -16 0 -17 -2 -5 -10 15 -10 44
6 35 20 -7 11 24 22 37 13 6 -3 8 -1 5 5 -9 13 2 44 13 37 5 -3 12 0 15 6 8
12 6 15 -20 23 -17 5 -21 1 -23 -21z"/>
<path d="M192 2078 l-2 -67 -37 -4 -38 -4 43 -1 42 -2 0 -100 0 -100 -67 -2
-68 -1 65 -6 c36 -3 67 -3 68 2 2 4 16 8 30 8 24 2 24 2 5 6 -22 4 -23 9 -23
93 0 61 4 90 13 93 7 3 5 6 -5 6 -14 1 -18 14 -21 74 l-3 72 -2 -67z"/>
<path d="M1169 2104 c-18 -22 -20 -44 -4 -44 7 0 16 12 19 26 9 33 3 39 -15
18z"/>
<path d="M1527 2020 c24 -36 63 -55 63 -30 0 5 -8 7 -17 4 -17 -5 -17 -5 0 9
23 19 22 30 -2 22 -14 -4 -23 0 -31 15 -6 11 -17 20 -25 20 -10 0 -6 -11 12
-40z"/>
<path d="M971 2033 c0 -11 3 -13 6 -5 6 17 23 15 23 -2 0 -8 6 -16 13 -19 9
-3 9 -8 -2 -18 -8 -9 -11 -9 -7 -2 5 9 2 11 -8 7 -17 -6 -22 -24 -8 -24 5 0 9
-6 9 -14 0 -8 -5 -14 -11 -13 -6 1 -10 -4 -8 -10 1 -7 -3 -13 -8 -13 -6 0 -10
8 -8 18 2 14 -4 17 -33 16 -31 -1 -36 2 -31 18 2 10 -1 18 -7 18 -6 0 -11 5
-11 11 0 6 7 9 15 6 8 -4 16 -3 19 1 7 12 -46 13 -60 1 -8 -7 -11 -21 -8 -34
4 -16 -1 -30 -14 -43 -22 -22 -18 -39 5 -21 10 9 13 8 13 -4 0 -8 -5 -17 -11
-19 -8 -3 -6 -10 5 -20 20 -20 20 -28 3 -28 -36 0 -40 -89 -5 -103 9 -4 8 -6
-3 -6 -9 -1 -24 -10 -35 -22 -14 -16 -27 -20 -54 -16 -33 5 -33 5 -10 -6 14
-6 28 -16 32 -21 4 -6 14 -4 26 7 22 20 42 22 42 5 0 -7 11 -25 24 -40 l23
-28 11 26 c15 32 15 51 1 60 -8 5 -10 -1 -7 -20 6 -29 -9 -31 -26 -3 -8 13 -8
20 3 26 9 6 10 14 5 22 -5 8 -9 35 -9 62 0 38 3 47 17 47 12 0 18 8 18 23 0
12 5 29 10 37 8 12 10 10 11 -10 1 -20 2 -21 6 -6 3 11 -2 25 -11 32 -20 14
-10 46 13 42 12 -3 16 -14 15 -45 0 -23 3 -40 8 -37 4 3 8 1 8 -5 0 -5 -6 -11
-12 -14 -7 -2 -9 -8 -5 -13 13 -14 28 18 23 48 -4 19 -2 26 7 22 7 -2 19 7 27
21 7 14 17 25 22 25 5 0 7 4 4 9 -7 11 28 21 42 12 6 -4 12 -32 13 -64 2 -40
6 -57 16 -57 8 0 16 -7 19 -15 4 -8 10 -15 16 -15 5 0 6 4 3 10 -4 6 1 7 12 3
15 -6 16 -4 6 8 -7 8 -10 25 -6 37 3 13 1 22 -6 22 -5 0 -8 -7 -5 -15 4 -8 1
-15 -6 -15 -6 0 -8 -4 -5 -10 3 -5 2 -10 -4 -10 -15 0 -22 17 -25 61 -3 36 -1
39 18 33 18 -6 19 -5 8 9 -11 13 -10 19 5 34 27 27 15 57 -24 61 -26 3 -32 0
-27 -12 3 -9 2 -16 -4 -16 -5 0 -12 7 -16 15 -3 10 -19 15 -46 15 -32 0 -40
-4 -39 -17z m103 -20 c11 5 16 1 16 -13 0 -26 -21 -25 -54 1 -21 16 -24 24
-15 30 8 4 17 1 24 -8 7 -10 19 -14 29 -10z m-188 -74 c1 -25 -3 -39 -11 -39
-16 0 -25 43 -13 64 6 10 5 16 -2 16 -6 0 -8 4 -5 10 11 19 30 -12 31 -51z"/>
<path d="M1170 2040 c12 -8 12 -12 2 -18 -18 -12 -12 -123 8 -139 18 -15 30
-16 30 -3 0 6 -7 10 -15 10 -21 0 -8 26 32 66 37 38 41 48 15 42 -13 -4 -25 4
-38 23 -10 16 -26 29 -34 29 -13 0 -13 -1 0 -10z"/>
<path d="M1796 2034 c-17 -12 -17 -14 -3 -14 9 0 19 -11 23 -25 6 -26 23 -34
26 -12 5 44 4 67 -4 67 -5 0 -6 -9 -3 -20 8 -26 -3 -26 -13 -1 -6 17 -9 18
-26 5z"/>
<path d="M2350 2045 c-12 -63 -12 -63 20 -43 16 10 22 9 38 -10 10 -12 23 -18
27 -14 5 4 5 1 0 -7 -4 -8 -2 -16 5 -21 38 -24 96 -295 88 -414 -4 -52 -3 -64
4 -46 6 14 8 73 5 135 -4 86 -13 134 -40 222 -35 114 -61 168 -76 158 -5 -3
-11 1 -14 9 -4 9 -14 12 -25 9 -14 -3 -22 1 -25 14 -3 10 -6 14 -7 8z"/>
<path d="M1471 2018 c-11 -11 -17 -26 -13 -32 4 -7 8 -4 10 7 4 20 18 23 25 5
2 -7 4 -1 4 15 1 33 -1 33 -26 5z"/>
<path d="M1976 2031 c-4 -6 -2 -19 3 -30 8 -14 8 -20 -1 -23 -7 -3 -2 -7 10
-10 26 -7 27 -2 8 42 -8 19 -16 28 -20 21z"/>
<path d="M381 2004 c-12 -14 -12 -17 0 -25 9 -5 16 -3 21 9 14 36 4 43 -21 16z"/>
<path d="M1278 1995 c-21 -29 -15 -117 8 -108 9 3 11 19 8 51 -3 33 -1 43 6
32 8 -12 10 -11 10 6 0 11 5 25 12 32 9 9 8 12 -7 12 -11 0 -28 -11 -37 -25z"/>
<path d="M1884 1986 c-8 -11 -14 -15 -14 -8 0 7 -5 10 -11 6 -8 -4 -6 -10 6
-17 14 -7 15 -11 4 -18 -7 -4 -16 -4 -19 1 -3 5 -16 7 -28 3 -12 -3 -19 -9
-16 -14 3 -5 1 -9 -3 -9 -5 0 -18 -7 -29 -16 -18 -15 -18 -15 0 -10 13 5 17 2
12 -9 -3 -8 -1 -15 4 -15 6 0 10 5 10 10 0 6 7 10 15 10 8 0 15 -3 15 -6 0
-11 -28 -33 -34 -27 -3 4 -6 1 -6 -5 0 -19 19 -14 41 12 18 21 24 23 35 11 16
-15 19 -29 5 -20 -5 3 -12 1 -16 -5 -3 -5 -1 -10 5 -10 6 0 8 -4 5 -10 -3 -5
4 -10 15 -10 16 0 20 5 16 15 -3 8 -1 15 3 15 5 0 11 -7 15 -15 3 -8 1 -15 -4
-15 -6 0 -10 -4 -10 -10 0 -14 27 -12 33 3 3 6 6 -2 6 -20 1 -17 -5 -34 -11
-36 -8 -3 -6 -6 5 -6 11 -1 17 -9 17 -26 0 -18 4 -23 15 -19 8 4 15 1 15 -5 0
-6 -6 -11 -12 -11 -8 0 -9 -3 -3 -8 6 -4 11 -22 11 -41 1 -18 5 -36 10 -40 5
-3 15 -19 23 -36 12 -27 11 -31 -13 -52 -31 -26 -33 -37 -6 -28 18 6 18 4 9
-24 -6 -17 -14 -29 -18 -26 -13 8 -9 -30 5 -46 12 -13 11 -17 -11 -29 -25 -14
-33 -34 -16 -45 6 -3 15 3 21 14 8 16 18 19 43 16 28 -4 29 -4 7 4 -14 5 -19
9 -11 10 7 1 11 7 8 15 -3 8 -1 17 6 20 9 3 8 5 -1 5 -7 1 -10 6 -7 11 3 6 0
10 -9 10 -8 0 -17 -6 -19 -12 -3 -7 -6 -8 -6 -3 0 6 6 19 15 30 13 17 16 18
24 5 5 -8 10 -10 10 -4 0 5 -6 16 -12 23 -11 11 -10 14 0 18 10 4 8 9 -5 19
-16 12 -16 15 -3 24 25 17 32 11 29 -24 -2 -22 3 -42 14 -54 9 -10 14 -22 11
-25 -13 -13 17 -35 39 -29 20 5 21 4 8 -12 -17 -20 -7 -34 13 -17 8 7 12 21 9
32 -4 12 0 25 8 30 10 6 6 8 -13 7 -16 -1 -28 -6 -28 -10 0 -4 -4 -8 -10 -8
-5 0 -10 7 -10 15 0 9 -7 18 -15 21 -22 9 -19 45 5 51 11 3 20 9 20 14 0 17
28 9 33 -8 4 -17 5 -17 6 0 2 25 51 24 51 -2 0 -11 5 -23 10 -26 7 -5 10 9 8
38 -2 25 -6 43 -10 41 -4 -2 -9 0 -13 6 -3 5 -11 10 -18 10 -8 0 -8 -3 1 -12
16 -16 16 -33 0 -21 -7 6 -29 13 -49 16 -41 6 -109 46 -109 64 0 6 -8 14 -17
16 -15 4 -14 6 5 12 18 6 20 10 10 16 -10 7 -9 9 5 9 16 0 16 2 -3 22 -21 23
-22 39 -2 46 7 2 12 -3 12 -11 0 -8 7 -17 15 -21 8 -3 15 -14 15 -25 0 -25 18
-37 33 -22 9 9 8 10 -7 5 -15 -6 -17 -4 -12 14 9 28 -51 92 -65 70 -7 -11 -9
-11 -9 1 0 8 -3 12 -6 8 -3 -3 -12 -1 -18 6 -10 9 -4 15 26 30 21 11 38 23 38
28 0 15 -19 10 -40 -11 -23 -23 -45 -27 -37 -6 3 8 -1 20 -8 26 -8 7 -12 16
-9 21 3 5 -5 9 -17 9 -24 0 -73 46 -64 60 10 15 34 -1 28 -18 -4 -14 -3 -14 5
-3 6 9 7 23 1 38 -7 18 -5 25 6 29 8 4 12 11 8 17 -4 7 0 8 11 4 10 -4 20 -7
22 -7 2 0 4 -12 4 -27 0 -34 7 -27 13 13 4 28 3 31 -25 31 -18 0 -35 -8 -44
-21z"/>
<path d="M740 1981 c0 -11 -6 -22 -12 -24 -10 -4 -10 -6 0 -6 13 -1 42 22 42
32 0 3 -7 7 -15 11 -10 3 -15 -1 -15 -13z"/>
<path d="M2305 1989 c4 -5 4 -21 1 -34 -5 -18 -11 -23 -24 -18 -15 6 -15 5 -3
-11 13 -15 15 -16 23 -2 5 9 16 16 25 16 10 0 13 6 9 16 -3 9 -6 22 -6 30 0 8
-7 14 -16 14 -8 0 -12 -5 -9 -11z"/>
<path d="M688 1967 c-16 -13 -28 -27 -28 -31 0 -5 7 -3 15 4 8 7 15 8 15 2 0
-13 -25 -33 -33 -26 -3 3 -3 -3 0 -15 4 -15 1 -21 -11 -21 -9 0 -16 -4 -16
-10 0 -5 -5 -10 -11 -10 -6 0 -9 7 -5 15 3 8 0 15 -5 15 -6 0 -9 -8 -6 -19 2
-10 0 -27 -6 -37 -6 -10 -12 -24 -13 -30 -1 -6 -5 -21 -9 -33 -3 -11 -2 -21 3
-21 5 0 15 19 21 43 8 28 24 53 46 70 31 25 33 25 30 7 -2 -11 0 -18 6 -15 5
4 9 12 9 18 0 17 39 49 50 42 6 -4 10 -1 10 4 0 6 -9 11 -19 11 -23 0 -32 19
-19 43 11 22 9 21 -24 -6z"/>
<path d="M1595 1970 c-14 -16 -21 -17 -32 -8 -11 9 -16 9 -22 -1 -5 -7 -11
-12 -15 -12 -19 3 -26 0 -26 -13 0 -15 40 -10 51 7 4 5 16 4 30 -3 13 -7 21
-9 16 -5 -4 5 0 19 8 32 19 28 14 30 -10 3z"/>
<path d="M1743 1968 c-6 -7 -13 -21 -16 -30 -11 -31 21 -20 38 12 13 25 13 30
1 30 -7 0 -18 -6 -23 -12z"/>
<path d="M1904 1925 c1 -34 9 -44 21 -25 3 5 25 7 48 4 39 -6 44 -4 55 20 10
22 9 26 -3 26 -8 0 -15 -5 -15 -10 0 -6 -12 -10 -27 -9 -16 1 -35 0 -43 -2 -9
-3 -14 3 -14 14 1 9 -4 17 -10 17 -8 0 -12 -14 -12 -35z"/>
<path d="M1359 1913 c-5 -16 -17 -34 -26 -40 -9 -7 -14 -15 -12 -17 11 -11 58
42 56 62 -2 29 -5 28 -18 -5z"/>
<path d="M2044 1927 c-3 -8 0 -25 5 -39 7 -20 15 -25 30 -21 14 3 21 1 21 -8
0 -8 10 -20 21 -28 19 -11 21 -11 15 4 -3 9 -6 25 -6 35 0 24 -40 31 -58 10
-10 -13 -11 -13 -6 3 3 9 1 17 -5 17 -18 0 -13 28 7 33 16 4 16 5 -1 6 -10 0
-20 -5 -23 -12z"/>
<path d="M2090 1928 c0 -11 10 -20 26 -24 34 -9 90 -59 75 -68 -6 -4 -11 -11
-11 -17 0 -5 9 0 20 11 37 37 15 73 -47 77 -20 1 -41 10 -49 20 -12 17 -13 17
-14 1z"/>
<path d="M2332 1925 c-22 -12 -22 -13 -3 -18 11 -3 22 1 25 9 3 7 12 11 21 8
8 -3 15 -1 15 5 0 14 -29 12 -58 -4z"/>
<path d="M1025 1903 c-10 -9 -15 -26 -12 -40 3 -17 0 -23 -14 -23 -10 0 -23
-9 -29 -19 -17 -33 -11 -45 10 -20 10 13 19 20 20 15 0 -4 9 2 19 15 14 17 16
26 8 31 -8 5 -6 8 6 8 9 0 17 -3 18 -7 0 -5 2 -25 4 -45 5 -43 -5 -52 -55 -54
-24 -1 -42 5 -58 21 -15 15 -19 24 -11 27 9 3 9 9 1 24 -6 10 -12 15 -12 9 0
-5 -4 -27 -9 -48 -8 -34 -7 -37 10 -32 13 5 19 2 19 -10 0 -9 -4 -13 -10 -10
-5 3 -10 1 -10 -4 0 -14 17 -14 25 -1 7 11 33 2 55 -20 16 -16 43 -74 40 -85
-1 -4 7 -13 17 -22 17 -14 17 -14 -4 -10 -24 5 -32 -8 -10 -16 7 -3 5 -6 -5
-6 -22 -1 -23 -14 -3 -31 8 -7 12 -16 9 -21 -3 -5 0 -17 6 -26 11 -17 11 -17
6 0 -3 9 0 17 6 17 9 0 9 3 1 11 -11 11 -6 49 7 49 4 0 7 30 6 67 l-1 67 33
10 c17 5 32 13 32 18 0 5 -9 6 -21 3 -18 -6 -19 -5 -7 14 7 12 16 21 20 21 5
0 8 5 8 11 0 6 -9 8 -21 4 -14 -5 -19 -3 -15 3 3 6 1 14 -5 18 -9 5 -10 -1 -5
-20 4 -16 2 -26 -4 -26 -7 0 -9 -8 -5 -20 4 -11 2 -20 -4 -20 -6 0 -19 -10
-31 -22 -16 -17 -20 -19 -20 -6 0 9 5 18 11 20 5 2 11 10 12 18 2 8 7 22 12
30 11 17 14 60 4 60 -3 0 -4 11 -1 25 4 21 0 25 -19 25 -22 1 -23 2 -6 14 9 7
17 16 17 20 0 11 -18 6 -35 -11z"/>
<path d="M1670 1903 c-21 -9 -42 -31 -33 -36 5 -2 19 -1 33 4 19 5 20 7 6 8
-26 1 -13 13 18 16 14 2 31 -4 38 -13 11 -13 10 -15 -9 -10 -16 4 -23 2 -23
-9 0 -9 -6 -13 -15 -9 -8 3 -15 1 -15 -3 0 -5 -3 -17 -7 -27 -5 -14 -2 -16 16
-11 18 4 20 3 11 -9 -10 -11 -3 -13 46 -12 41 1 58 -2 57 -10 -4 -15 13 -16
22 -2 3 6 1 10 -5 10 -6 0 -8 4 -5 10 3 5 2 17 -2 25 -7 12 -13 12 -33 2 -18
-9 -31 -10 -46 -2 -25 12 -21 35 5 28 27 -7 33 11 12 36 -18 21 -41 25 -71 14z"/>
<path d="M1992 1870 c7 -11 21 -20 30 -20 10 0 18 -4 18 -10 0 -5 7 -10 15
-10 9 0 12 -6 9 -17 -3 -10 1 -7 10 7 13 23 13 25 -2 28 -9 2 -21 8 -26 13 -6
5 -18 9 -28 9 -10 0 -18 5 -18 10 0 6 -5 10 -10 10 -6 0 -5 -8 2 -20z"/>
<path d="M1406 1819 c-18 -56 -16 -69 13 -98 20 -20 36 -29 48 -25 36 12 62
27 58 34 -3 4 2 13 10 20 18 15 11 31 -10 25 -51 -16 -49 -15 -31 -28 16 -12
15 -13 -5 -14 -12 -1 -26 -8 -30 -14 -9 -16 -34 2 -42 30 -9 34 8 45 32 20 18
-20 21 -20 21 -5 0 10 7 24 15 32 25 26 17 34 -15 16 -30 -16 -32 -16 -45 2
-11 15 -15 16 -19 5z"/>
<path d="M2097 1824 c-4 -4 2 -13 13 -21 11 -8 20 -25 20 -39 0 -21 2 -23 14
-12 10 9 11 15 2 20 -8 5 -8 10 1 19 9 9 13 6 19 -15 10 -41 56 -87 74 -76 8
5 11 10 6 10 -5 0 -2 8 8 19 15 16 15 20 1 31 -17 14 -50 6 -40 -10 3 -5 1
-10 -5 -10 -7 0 -14 9 -17 20 -3 11 -9 20 -14 20 -5 0 -9 7 -9 16 0 12 -6 15
-22 11 -13 -4 -26 0 -33 9 -6 8 -14 12 -18 8z"/>
<path d="M340 1809 l-55 -6 58 -1 c52 -2 57 -4 58 -24 1 -16 3 -18 6 -6 2 9
16 19 31 21 25 4 25 4 -5 6 -17 0 -33 4 -35 9 -1 4 -28 4 -58 1z"/>
<path d="M2448 1798 c0 -13 -1 -29 -1 -35 1 -7 -5 -13 -13 -13 -8 0 -14 -5
-14 -11 0 -6 7 -9 15 -5 16 6 21 -9 6 -19 -12 -7 -4 -86 10 -100 6 -6 7 2 3
22 -5 24 -1 36 15 52 25 25 27 33 6 25 -18 -7 -20 12 -2 19 8 4 8 8 2 14 -5 4
-11 18 -13 30 -3 18 0 22 15 16 16 -6 16 -5 4 10 -19 23 -31 21 -33 -5z"/>
<path d="M627 1781 c3 -11 -2 -21 -11 -24 -19 -8 -21 -37 -3 -37 7 0 18 15 25
33 15 42 15 47 -2 47 -9 0 -12 -7 -9 -19z"/>
<path d="M2027 1780 c10 -12 21 -16 26 -11 13 13 -1 31 -23 31 -19 0 -19 -1
-3 -20z"/>
<path d="M2878 1793 c23 -2 61 -2 85 0 23 2 4 4 -43 4 -47 0 -66 -2 -42 -4z"/>
<path d="M1249 1759 c-7 -13 -14 -31 -15 -39 -2 -8 -8 -16 -13 -18 -6 -2 -11
-15 -11 -28 0 -13 -4 -24 -9 -24 -13 0 -22 -43 -11 -54 5 -5 2 -18 -7 -32 -10
-16 -11 -24 -4 -24 6 0 16 11 21 25 7 18 14 23 27 18 15 -5 16 -3 6 8 -16 16
-17 49 -2 49 5 0 7 5 4 10 -7 12 16 70 28 70 5 0 5 5 1 12 -4 7 -3 8 4 4 7 -4
12 -16 12 -27 0 -10 5 -19 10 -19 16 0 11 33 -9 64 l-19 28 -13 -23z"/>
<path d="M192 1693 l-2 -82 -62 -4 -63 -3 68 -2 67 -2 0 -100 0 -100 -67 -2
-68 -1 65 -6 c36 -3 67 -3 68 2 2 4 16 8 30 8 24 2 24 2 5 6 -22 4 -23 9 -23
93 0 84 1 89 23 93 19 4 18 4 -5 6 -27 1 -27 1 -31 89 l-3 87 -2 -82z"/>
<path d="M2574 1757 c17 -49 34 -313 24 -367 -3 -14 -3 -17 -1 -7 2 9 9 17 15
17 18 0 -13 346 -33 364 -9 8 -10 7 -5 -7z"/>
<path d="M1793 1750 c-25 -10 -29 -26 -13 -50 6 -10 10 -11 10 -2 0 6 4 12 8
12 17 0 7 -45 -12 -53 -11 -4 -16 -13 -12 -22 3 -8 0 -15 -7 -15 -8 0 -7 -3 2
-9 12 -8 13 -12 1 -25 -7 -9 -10 -19 -7 -22 3 -3 10 4 17 15 13 25 45 27 67 5
13 -13 14 -26 5 -92 -5 -42 -15 -94 -20 -114 -6 -22 -6 -38 -1 -38 5 0 9 8 10
18 1 11 4 9 9 -8 9 -27 13 -12 10 33 -1 15 3 33 8 40 6 7 10 23 11 37 0 14 2
50 5 80 5 58 -1 81 -15 59 -4 -7 -11 -10 -16 -6 -4 4 -2 16 3 25 8 11 8 26 2
45 -8 22 -13 25 -24 16 -8 -7 -18 -9 -22 -5 -4 4 1 14 11 21 13 9 16 20 11 39
-7 28 -8 29 -41 16z m53 -107 c-2 -26 -36 -37 -55 -19 -8 9 -11 19 -7 23 5 5
11 2 13 -4 4 -10 8 -9 20 2 19 20 31 19 29 -2z"/>
<path d="M1723 1711 c6 -25 3 -26 -27 -5 -16 10 -26 12 -31 5 -3 -6 -5 -11 -3
-12 31 -8 49 -11 76 -14 32 -3 33 -3 19 18 -20 30 -42 35 -34 8z"/>
<path d="M2320 1711 c7 -14 6 -22 -5 -31 -9 -7 -19 -10 -22 -6 -4 4 -1 12 7
17 12 8 10 10 -8 6 -12 -3 -20 -1 -17 3 3 5 0 12 -6 16 -8 5 -10 -1 -7 -19 3
-15 1 -24 -3 -21 -8 4 -13 -16 -11 -38 1 -3 -5 -9 -13 -12 -17 -6 -21 9 -5 19
17 10 11 35 -7 35 -10 0 -27 7 -37 15 -26 19 -34 19 -39 -2 -4 -15 -6 -15 -12
4 -11 33 -26 17 -20 -20 7 -37 15 -48 15 -21 1 17 3 17 21 -5 11 -13 22 -21
26 -18 3 4 0 13 -7 22 -18 21 -6 29 19 13 13 -8 20 -20 18 -30 -5 -19 25 -52
38 -41 4 5 2 -2 -6 -14 -11 -19 -11 -25 4 -41 15 -17 15 -19 0 -35 -13 -12
-14 -19 -5 -30 7 -8 9 -16 7 -19 -9 -9 17 -58 28 -51 5 3 4 9 -3 13 -27 17
-13 137 16 126 7 -3 9 5 6 20 -5 28 3 31 24 9 17 -17 44 -20 44 -5 0 6 -7 10
-15 10 -8 0 -15 5 -15 10 0 6 8 10 19 10 26 0 23 44 -4 48 -16 3 -17 1 -5 -7
12 -9 12 -11 1 -11 -8 0 -20 -8 -28 -17 -10 -13 -16 -15 -19 -5 -3 6 -12 12
-21 12 -8 0 -13 7 -11 18 2 9 12 17 24 17 42 0 72 56 37 70 -10 3 -11 0 -3
-14z m-49 -104 c12 -9 14 -18 8 -35 -5 -13 -14 -20 -20 -17 -6 4 -8 14 -5 22
4 9 1 22 -5 29 -14 17 0 18 22 1z"/>
<path d="M580 1675 c0 -19 -4 -35 -10 -35 -5 0 -10 -5 -10 -11 0 -5 5 -7 10
-4 6 3 10 1 10 -4 0 -6 10 -11 23 -11 20 1 20 2 5 11 -10 5 -18 18 -18 27 1
16 2 16 14 0 7 -10 16 -15 20 -11 3 3 -1 15 -11 25 -11 13 -12 18 -3 18 10 0
10 3 0 15 -20 24 -30 17 -30 -20z"/>
<path d="M1638 1665 c-21 -8 -38 -11 -38 -7 -1 9 -30 -29 -30 -39 0 -4 8 -9
18 -11 11 -3 19 0 19 8 0 7 -4 11 -9 8 -4 -3 -8 -2 -8 1 0 3 24 17 53 30 57
26 54 32 -5 10z"/>
<path d="M930 1656 c0 -9 -4 -16 -9 -16 -5 0 -8 -12 -8 -26 0 -28 7 -23 25 18
7 17 8 30 2 33 -6 4 -10 -1 -10 -9z"/>
<path d="M2490 1617 c0 -13 -5 -28 -12 -35 -6 -6 -9 -15 -5 -19 10 -9 36 29
30 44 -3 7 0 13 7 13 6 0 8 5 5 10 -11 18 -25 11 -25 -13z"/>
<path d="M770 1621 c0 -5 -8 -12 -17 -14 -14 -4 -13 -5 4 -6 12 0 25 -6 29
-13 5 -8 2 -9 -9 -5 -12 5 -19 -1 -23 -18 -3 -13 -3 -28 0 -34 3 -5 0 -11 -6
-14 -22 -7 -1 -19 21 -12 19 6 19 8 6 21 -31 32 -8 61 25 32 12 -11 12 -10 2
3 -13 17 1 39 25 39 7 0 13 6 13 14 0 9 -7 12 -20 9 -11 -3 -17 -9 -14 -14 3
-5 0 -9 -5 -9 -6 0 -11 7 -11 15 0 8 -4 15 -10 15 -5 0 -10 -4 -10 -9z"/>
<path d="M1294 1615 c4 -10 -3 -20 -19 -27 -20 -9 -23 -16 -18 -37 8 -36 13
-39 13 -8 0 15 10 33 23 44 23 18 26 43 5 43 -6 0 -7 -7 -4 -15z"/>
<path d="M1436 1600 c-12 -12 -28 -18 -43 -16 -12 3 -23 0 -23 -5 0 -5 11 -9
25 -9 24 0 36 -7 68 -36 6 -6 20 -9 31 -6 15 4 18 1 13 -11 -4 -11 -1 -17 8
-17 8 0 15 -4 15 -9 0 -5 8 -8 18 -7 12 1 16 -5 15 -21 -2 -13 2 -23 7 -23 13
0 13 40 0 60 -5 8 -12 11 -16 7 -8 -8 -34 11 -34 25 0 6 7 8 15 4 8 -3 15 -1
15 4 0 11 -48 25 -57 17 -3 -4 -14 -2 -25 4 -15 8 -18 17 -14 35 7 28 7 29
-18 4z"/>
<path d="M565 1590 c-5 -9 -1 -83 11 -178 3 -23 9 -40 15 -37 12 8 12 55 0 55
-11 0 -8 46 2 57 12 11 8 43 -5 43 -9 0 -10 3 -2 8 6 4 13 18 17 30 6 23 5 24
-15 5 -20 -18 -21 -18 -14 5 7 22 2 30 -9 12z"/>
<path d="M1323 1593 c-7 -3 -13 -11 -13 -19 0 -8 -4 -14 -10 -14 -5 0 -10 -6
-10 -13 0 -7 -6 -22 -14 -32 -14 -19 -15 -19 -33 4 -30 36 -53 22 -53 -31 0
-24 5 -50 10 -58 8 -13 10 -12 10 3 0 9 5 17 10 17 6 0 10 5 10 10 0 6 -3 9
-7 8 -13 -5 -16 6 -9 30 9 27 23 29 31 3 7 -24 32 -17 41 11 4 15 8 17 14 8 5
-9 9 -9 14 -1 4 6 4 16 1 22 -4 5 1 19 11 30 18 20 17 29 -3 22z"/>
<path d="M2450 1585 c0 -8 -4 -15 -8 -15 -11 0 -3 -59 9 -66 5 -3 15 1 23 8
11 11 11 16 -1 26 -10 10 -13 10 -13 1 0 -7 -3 -10 -6 -6 -4 3 -2 20 4 36 7
19 7 31 1 31 -5 0 -9 -7 -9 -15z"/>
<path d="M837 1578 c-7 -19 10 -58 26 -58 8 0 19 11 25 25 12 26 7 31 -18 15
-11 -7 -11 -10 -2 -10 7 0 10 -4 7 -10 -14 -22 -27 -9 -21 20 5 29 -7 43 -17
18z"/>
<path d="M2387 1577 c-11 -29 -9 -36 13 -34 19 1 29 17 11 17 -5 0 -11 8 -13
18 -3 16 -4 16 -11 -1z"/>
<path d="M1330 1548 c0 -5 6 -8 14 -8 8 0 16 -6 19 -12 3 -9 11 -6 26 10 l22
23 -40 -3 c-23 -2 -41 -6 -41 -10z"/>
<path d="M2332 1520 c25 -44 38 -51 38 -21 0 11 -9 23 -20 26 -11 3 -20 13
-20 21 0 8 -5 14 -10 14 -6 0 0 -18 12 -40z"/>
<path d="M1404 1516 c3 -14 2 -28 -4 -31 -5 -3 -10 -1 -10 5 0 6 -4 8 -10 5
-5 -3 -10 -1 -10 6 0 7 -3 9 -7 6 -3 -4 -12 -2 -20 4 -9 8 -13 8 -13 1 0 -6 9
-14 20 -17 11 -3 20 -13 20 -21 0 -25 34 -11 51 21 17 33 15 45 -8 45 -11 0
-14 -6 -9 -24z"/>
<path d="M1646 1516 c3 -9 9 -15 12 -14 4 1 16 -3 28 -9 19 -11 21 -10 16 13
-3 17 -7 21 -12 14 -6 -9 -13 -9 -29 -1 -17 10 -20 9 -15 -3z"/>
<path d="M1450 1499 c0 -6 -8 -18 -17 -25 -17 -13 -17 -13 0 -14 10 0 24 6 31
13 11 10 10 15 -1 25 -9 9 -13 10 -13 1z"/>
<path d="M2420 1497 c0 -7 9 -18 20 -25 12 -7 17 -18 14 -29 -4 -12 1 -10 15
7 11 14 21 32 21 40 0 12 -2 12 -8 2 -9 -13 -42 -6 -42 9 0 5 -4 9 -10 9 -5 0
-10 -6 -10 -13z"/>
<path d="M760 1484 c0 -20 24 -44 43 -43 15 1 17 3 5 6 -9 2 -19 11 -22 20 -5
13 -4 14 9 3 13 -11 14 -10 9 4 -6 14 -44 24 -44 10z"/>
<path d="M1498 1478 c15 -19 10 -23 -38 -33 -19 -5 -29 -10 -22 -12 6 -3 12
-11 12 -19 0 -8 4 -14 9 -14 5 0 17 -3 26 -6 15 -6 15 -4 3 15 -11 18 -11 23
2 31 11 7 16 4 18 -11 2 -12 12 -24 23 -26 10 -3 19 -14 19 -24 0 -13 7 -19
21 -19 16 0 20 -5 18 -27 -4 -34 15 -43 19 -10 2 18 -10 38 -42 72 -26 26 -46
53 -46 60 0 7 -8 19 -17 26 -16 13 -17 12 -5 -3z"/>
<path d="M1632 1468 c1 -13 -1 -24 -5 -25 -19 -7 -25 -1 -19 19 3 14 1 19 -6
14 -6 -3 -9 -15 -7 -26 2 -11 0 -22 -6 -25 -5 -3 0 -15 10 -27 22 -23 45 -15
36 13 -4 10 -2 19 4 19 15 0 25 -41 12 -50 -7 -3 -14 -18 -16 -32 -4 -22 -2
-25 20 -20 31 6 33 22 3 22 -20 0 -19 2 10 20 32 20 41 43 22 55 -17 10 -11
25 7 18 11 -4 14 -3 9 5 -11 17 -34 15 -45 -5 -8 -15 -11 -15 -12 -3 -1 8 -1
23 0 33 1 9 -3 17 -9 17 -6 0 -10 -10 -8 -22z"/>
<path d="M674 1457 c3 -15 1 -25 -5 -22 -5 4 -9 -1 -9 -10 0 -12 6 -15 23 -9
29 9 34 14 21 22 -6 4 -16 16 -22 27 -11 18 -12 17 -8 -8z"/>
<path d="M2188 1453 c-10 -2 -15 -10 -11 -19 7 -19 23 -18 23 1 0 17 16 20 23
5 3 -6 4 -5 3 2 -3 14 -14 17 -38 11z"/>
<path d="M2411 1441 c-11 -20 -5 -31 17 -31 11 0 12 3 3 13 -8 10 -7 17 1 25
9 9 9 12 0 12 -6 0 -16 -8 -21 -19z"/>
<path d="M2503 1393 c-7 -36 -15 -69 -20 -72 -4 -3 -8 -10 -9 -16 -1 -36 -18
-92 -30 -101 -8 -7 -14 -16 -13 -20 4 -23 -3 -34 -21 -34 -16 0 -20 -7 -20
-32 0 -36 -57 -138 -77 -138 -7 0 -13 -5 -13 -11 0 -11 -59 -69 -71 -69 -4 0
-10 -10 -13 -22 l-7 -23 -10 23 c-5 13 -6 29 -2 34 3 7 1 8 -6 4 -6 -4 -9 -16
-6 -25 3 -11 -2 -24 -12 -32 -15 -13 -16 -12 -11 9 4 12 2 22 -3 22 -5 0 -9
-12 -9 -26 0 -24 -2 -25 -17 -13 -15 12 -16 12 -10 -4 4 -10 7 -23 7 -28 0 -5
8 -9 18 -9 14 0 14 -2 3 -9 -17 -11 -41 -3 -38 11 4 19 -18 18 -43 -2 l-25
-20 27 4 c29 5 41 -3 30 -21 -9 -14 -69 -44 -85 -42 -23 3 -40 -1 -33 -8 22
-22 96 10 196 85 2 2 -1 6 -7 10 -7 5 -7 11 3 20 12 11 14 10 14 -5 0 -21 151
134 175 180 9 18 32 59 52 92 42 71 69 144 88 240 8 39 17 80 20 93 3 12 2 22
-3 22 -4 0 -13 -30 -19 -67z"/>
<path d="M1239 1438 c-1 -7 -1 -19 0 -26 2 -10 -4 -12 -18 -7 -12 3 -21 2 -21
-3 0 -17 13 -21 33 -11 11 6 22 7 26 3 7 -11 51 -18 51 -9 0 3 -14 11 -31 17
-23 8 -29 15 -26 29 3 11 1 19 -4 19 -5 0 -10 -6 -10 -12z"/>
<path d="M730 1432 c0 -15 51 -62 67 -62 8 0 13 11 12 28 -1 16 -3 20 -6 10
-6 -24 -16 -23 -47 8 -14 15 -26 22 -26 16z"/>
<path d="M2340 1429 c0 -5 -5 -7 -12 -3 -6 4 -8 3 -4 -4 3 -6 2 -14 -4 -17 -8
-5 -8 -11 0 -20 8 -9 8 -15 0 -20 -5 -3 -10 -13 -10 -21 0 -13 2 -13 14 -2 14
14 33 98 22 98 -3 0 -6 -5 -6 -11z"/>
<path d="M2786 1412 c-4 -7 -2 -12 3 -12 7 0 11 -36 11 -100 l0 -100 -62 -2
-63 -2 58 -3 57 -4 0 -89 0 -90 -89 0 c-62 0 -91 4 -94 13 -4 7 -6 6 -6 -5 -1
-9 -4 -18 -8 -20 -5 -2 -5 -34 -2 -73 l5 -70 2 73 2 72 100 0 100 0 0 -100 0
-100 -37 -2 c-37 -1 -37 -1 -6 -5 29 -4 32 -7 36 -46 l4 -42 1 48 c2 44 4 47
30 48 23 2 24 2 5 6 -22 4 -23 9 -23 93 0 61 4 90 13 93 7 3 5 6 -5 6 -16 1
-18 13 -18 101 l0 100 103 2 102 2 -97 3 -98 4 0 89 c0 61 4 90 13 93 7 4 6 6
-5 6 -9 1 -18 6 -20 13 -3 9 -6 9 -12 0z"/>
<path d="M340 1401 c41 -4 64 -10 63 -18 -1 -6 3 -13 10 -16 7 -3 14 3 14 13
2 22 -25 30 -97 28 l-55 -1 65 -6z"/>
<path d="M2050 1400 c0 -5 5 -10 10 -10 6 0 10 -11 10 -25 0 -14 5 -25 10 -25
6 0 8 -17 5 -42 -2 -24 -2 -35 1 -25 3 9 10 14 16 11 15 -9 4 46 -18 92 -15
32 -34 46 -34 24z"/>
<path d="M2174 1392 c3 -20 41 -23 41 -3 0 8 -10 15 -22 17 -15 3 -20 -1 -19
-14z"/>
<path d="M675 1390 c-4 -6 4 -9 17 -7 17 1 22 -3 20 -15 -1 -9 1 -19 6 -22 5
-3 7 5 6 17 -1 12 -3 25 -3 30 -1 11 -39 9 -46 -3z"/>
<path d="M1714 1386 c1 -8 10 -23 19 -34 19 -20 23 -37 7 -27 -5 3 -10 2 -10
-4 0 -5 5 -13 10 -16 6 -3 10 -1 10 4 0 6 8 11 18 12 10 0 12 3 5 6 -7 2 -13
9 -13 13 0 5 -11 21 -24 35 -15 16 -24 20 -22 11z"/>
<path d="M2878 1393 c23 -2 61 -2 85 0 23 2 4 4 -43 4 -47 0 -66 -2 -42 -4z"/>
<path d="M610 1375 c0 -8 -4 -15 -10 -15 -13 0 -13 -37 -1 -45 12 -7 17 1 26
43 4 20 3 32 -4 32 -6 0 -11 -7 -11 -15z"/>
<path d="M1390 1375 c-11 -13 -10 -14 6 -8 17 6 18 5 4 -13 -9 -12 -9 -15 -1
-7 16 14 44 6 34 -11 -3 -6 -2 -7 2 -3 13 11 15 37 4 37 -6 0 -7 5 -3 12 4 7
3 8 -5 4 -6 -4 -9 -13 -5 -19 3 -7 -1 -4 -9 6 -13 15 -16 16 -27 2z"/>
<path d="M938 1372 c8 -5 13 -13 13 -18 -1 -5 11 -10 26 -12 25 -3 26 -2 13
11 -8 8 -26 18 -40 22 -17 4 -21 3 -12 -3z"/>
<path d="M192 1293 l-2 -82 -62 -4 -63 -3 68 -2 67 -2 0 -100 0 -100 -67 -2
-68 -1 65 -6 c36 -3 67 -3 68 2 2 4 48 7 103 7 l99 0 0 -100 0 -100 -52 -2
-53 -2 48 -3 47 -4 0 -90 0 -89 -90 0 -90 0 0 89 0 90 43 4 42 4 -47 1 -48 2
-2 88 -2 87 -3 -82 -4 -82 -52 -4 -52 -3 58 -2 57 -2 0 -100 0 -100 -47 -2
-48 -1 42 -4 c39 -4 42 -7 46 -36 4 -31 4 -31 5 6 l2 37 100 0 100 0 0 -100 0
-100 -52 -2 -53 -2 48 -3 47 -4 0 -90 0 -89 -90 0 -90 0 0 89 0 90 43 4 42 4
-47 1 -48 2 -2 63 -2 62 -3 -57 -4 -57 -52 -4 -52 -3 58 -2 57 -2 0 -100 0
-100 -47 -2 -48 -1 42 -4 c39 -4 42 -7 46 -36 4 -31 4 -31 5 6 l2 37 100 0
100 0 2 -67 2 -68 3 63 4 62 89 0 89 0 4 -52 3 -53 2 58 2 57 53 2 52 2 -47 3
-48 4 0 90 0 89 90 0 90 0 0 -89 0 -90 -42 -4 -43 -4 48 -1 47 -2 2 -67 2 -68
3 63 4 62 89 0 89 0 4 -52 3 -53 2 58 2 57 100 0 100 0 1 -32 c2 -28 2 -29 6
-8 3 14 10 28 17 32 7 5 5 8 -6 8 -16 0 -18 11 -18 100 0 89 -2 100 -17 99
-11 0 -13 -3 -5 -6 8 -3 12 -32 12 -94 l0 -89 -89 0 -90 0 -4 28 c-4 25 -4 25
-6 -5 l-1 -33 -100 0 -100 0 0 100 0 100 38 2 c36 1 36 1 5 5 -26 3 -33 9 -36
31 -4 24 -4 24 -6 -5 l-1 -33 -100 0 -100 0 -2 38 c-1 36 -1 36 -5 4 l-4 -32
-90 0 -89 0 0 90 0 90 90 0 89 0 4 -57 3 -58 2 63 2 62 63 2 62 2 -57 3 -58 4
0 89 c0 84 1 89 23 93 19 4 18 4 -5 6 -16 0 -28 4 -28 9 0 4 -43 6 -96 4 l-95
-3 3 95 c2 53 0 96 -4 96 -5 0 -8 45 -8 100 l0 100 48 2 47 1 -42 4 c-33 3
-43 8 -46 26 -4 18 -5 17 -6 -5 l-1 -28 -100 0 -99 0 -4 88 -3 87 -2 -82z
m198 -193 l0 -90 -90 0 -90 0 0 90 0 90 90 0 90 0 0 -90z m210 -400 l0 -100
-100 0 -100 0 0 100 0 100 100 0 100 0 0 -100z m0 -400 l0 -100 -100 0 -100 0
0 100 0 100 100 0 100 0 0 -100z"/>
<path d="M810 1347 c0 -8 13 -13 36 -13 32 0 34 1 18 13 -10 7 -26 13 -36 13
-10 0 -18 -6 -18 -13z"/>
<path d="M1260 1348 c0 -10 5 -18 11 -18 8 0 7 -6 -2 -17 -7 -10 -1 -7 14 6
31 28 34 36 10 27 -9 -4 -20 -1 -25 6 -6 10 -8 8 -8 -4z"/>
<path d="M1874 1329 c-3 -6 -1 -15 6 -19 7 -4 10 -12 6 -18 -3 -6 -2 -12 3
-14 9 -3 14 -28 12 -60 -1 -11 -9 -18 -20 -18 -11 0 -22 -6 -24 -12 -4 -10 -6
-10 -6 0 -1 6 -6 12 -12 12 -5 0 -7 -5 -4 -11 4 -6 -10 -26 -31 -45 -28 -26
-39 -32 -46 -22 -4 7 -8 10 -8 6 0 -4 -11 -3 -25 2 -25 9 -37 -4 -12 -13 26
-11 -15 -24 -50 -17 -24 6 -33 5 -30 -3 2 -7 13 -13 25 -15 12 -2 22 -11 22
-20 1 -13 4 -12 13 6 7 12 16 20 19 16 4 -3 1 -16 -7 -28 -8 -12 -11 -27 -6
-35 6 -9 10 -6 15 13 3 14 13 26 22 26 21 0 65 -35 56 -45 -4 -3 -2 -5 3 -3 6
2 12 -1 15 -6 5 -9 -17 -16 -57 -18 -15 0 -20 -5 -16 -16 4 -10 1 -13 -8 -10
-8 3 -13 14 -12 24 1 15 -2 14 -18 -8 -12 -16 -26 -25 -34 -21 -8 3 -15 1 -15
-5 0 -18 27 -21 49 -6 11 8 21 11 21 5 0 -5 19 0 41 11 34 16 47 18 66 9 21
-10 25 -8 33 14 5 14 17 25 26 25 10 0 15 3 11 6 -10 10 -47 -7 -47 -22 0 -8
-4 -14 -9 -14 -5 0 -7 9 -4 20 3 12 0 20 -6 20 -7 0 -9 5 -6 10 3 6 1 11 -4
11 -6 1 -15 3 -21 4 -5 1 -14 3 -20 4 -5 0 -10 6 -10 12 0 7 10 9 25 7 13 -3
22 -2 19 3 -2 4 1 26 8 48 10 33 16 40 32 35 12 -4 16 -2 12 5 -5 7 -1 9 8 5
9 -3 16 -1 16 5 0 6 7 11 16 11 14 0 14 -3 4 -15 -8 -10 -9 -15 -1 -15 6 0 16
9 23 20 17 26 44 26 51 -1 3 -12 11 -19 17 -17 6 2 10 8 8 13 -2 6 -6 9 -10 7
-5 -1 -8 4 -8 12 0 8 -6 16 -12 19 -16 6 4 43 21 40 14 -4 14 14 1 22 -5 3
-10 11 -10 17 0 6 12 1 26 -13 14 -13 21 -25 15 -27 -7 -2 -6 -10 2 -23 17
-27 24 -24 19 11 -2 17 -9 30 -14 30 -6 0 -8 7 -4 15 3 8 1 15 -4 15 -5 0 -12
11 -16 25 -7 27 -23 34 -25 10 -2 -18 -3 -21 -12 -57 -4 -16 -14 -28 -21 -28
-14 0 -31 27 -27 44 1 5 -7 15 -19 23 -11 8 -18 19 -15 24 4 5 2 9 -4 9 -5 0
-13 -5 -17 -11z m-120 -225 c14 -5 14 -8 1 -21 -17 -17 -37 -9 -28 12 6 17 6
17 27 9z"/>
<path d="M1821 1311 c-8 -5 -20 -7 -28 -4 -7 3 -13 1 -13 -4 0 -18 12 -22 31
-12 14 7 17 6 13 -5 -7 -19 -39 -27 -53 -13 -8 8 -11 6 -12 -8 -1 -11 -2 -24
-4 -30 -1 -5 -3 -16 -3 -22 -4 -28 -99 -1 -132 37 -18 21 -40 27 -40 11 0 -15
30 -41 46 -41 8 0 14 -4 14 -9 0 -5 8 -11 18 -13 12 -3 6 -10 -24 -25 -32 -17
-44 -19 -53 -10 -10 9 -11 8 -5 -6 8 -21 20 -20 119 9 33 10 66 24 73 31 7 7
18 13 23 13 6 0 5 9 -2 21 -10 20 -9 21 15 15 22 -5 28 -2 36 19 18 49 11 65
-19 46z"/>
<path d="M919 1303 c-5 -45 -3 -63 6 -60 5 2 10 15 10 28 0 15 5 23 13 21 8
-1 11 2 7 8 -7 12 -35 14 -36 3z"/>
<path d="M1627 1302 c-6 -9 9 -48 21 -56 14 -8 9 39 -5 53 -7 6 -14 7 -16 3z"/>
<path d="M600 1295 c0 -9 34 -92 68 -165 63 -138 196 -290 331 -379 95 -63
122 -75 131 -61 5 9 9 9 14 1 4 -6 4 -11 -1 -11 -4 0 2 -7 14 -15 51 -36 327
-95 309 -66 -5 7 3 13 23 17 20 4 28 11 24 21 -3 9 -12 12 -22 7 -9 -3 -25 -8
-36 -9 -11 -2 -24 -4 -30 -5 -5 -1 -1 -5 10 -10 19 -7 19 -8 1 -15 -11 -5 -21
-3 -26 5 -4 7 -29 14 -55 16 -27 1 -51 7 -54 13 -8 12 -62 33 -69 26 -3 -3 1
-5 8 -5 7 0 11 -3 8 -6 -3 -3 -25 0 -47 7 -32 10 -40 16 -36 30 5 15 1 17 -27
14 -42 -5 -93 29 -68 45 8 5 23 10 33 10 9 0 17 7 17 16 0 8 3 13 8 11 4 -3 8
8 9 24 1 16 -2 29 -7 29 -6 0 -10 -10 -10 -22 0 -38 -15 -52 -49 -45 -25 5
-29 4 -24 -11 3 -10 -1 -8 -12 6 -11 15 -24 22 -36 19 -11 -3 -22 -1 -25 4 -3
5 5 9 17 9 12 0 19 3 15 8 -4 4 -22 7 -38 7 -19 0 -33 6 -36 15 -5 13 -3 13
12 1 14 -12 16 -12 10 3 -4 10 -12 15 -19 12 -8 -3 -22 3 -33 13 -19 16 -19
18 -4 29 14 10 13 11 -10 6 -21 -5 -28 -2 -28 9 0 8 -6 14 -13 13 -6 0 -29 17
-49 40 l-38 41 24 11 c14 6 26 22 30 43 9 45 0 48 -14 5 -11 -35 -30 -49 -30
-23 0 8 -4 7 -10 -3 -8 -12 -10 -11 -10 6 0 12 -10 28 -22 36 -21 14 -21 17
-8 34 14 18 14 18 -2 5 -16 -12 -18 -11 -18 2 0 9 -11 28 -25 43 -14 15 -23
34 -20 42 3 7 -2 20 -11 29 -19 19 -10 30 11 13 13 -11 14 -10 9 6 -10 27 -35
54 -51 54 -7 0 -13 -2 -13 -5z"/>
<path d="M1690 1278 c0 -5 5 -8 10 -8 6 0 10 -4 10 -10 0 -5 -7 -7 -15 -4 -8
4 -15 2 -15 -4 0 -18 29 -22 45 -6 23 23 18 42 -10 40 -14 0 -25 -4 -25 -8z"/>
<path d="M2136 1268 c5 -14 1 -18 -15 -18 -12 0 -21 -6 -21 -16 0 -8 5 -12 10
-9 6 3 10 1 10 -4 0 -6 5 -11 10 -11 6 0 10 10 10 23 0 13 3 17 8 10 5 -8 14
-8 32 3 24 14 24 15 2 9 -16 -5 -28 -1 -38 12 -13 16 -13 16 -8 1z"/>
<path d="M1380 1262 c0 -2 7 -10 15 -18 9 -10 15 -11 15 -4 0 7 6 5 16 -4 12
-13 18 -13 28 -3 14 12 11 37 -5 37 -4 0 -6 -7 -3 -15 4 -8 1 -15 -5 -15 -7 0
-14 6 -17 14 -5 12 -44 19 -44 8z"/>
<path d="M687 1243 c-11 -11 -8 -34 8 -49 8 -8 12 -21 9 -29 -7 -18 23 -32 38
-17 7 7 5 10 -7 9 -19 -2 -30 39 -13 49 4 3 8 10 8 17 0 8 -3 8 -12 -1 -18
-18 -30 -14 -23 8 6 20 4 25 -8 13z"/>
<path d="M1540 1230 c11 -11 27 -20 37 -20 13 0 11 4 -7 20 -13 11 -29 20 -37
20 -9 0 -7 -6 7 -20z"/>
<path d="M1493 1196 c1 -25 4 -31 13 -22 6 6 10 14 7 19 -2 4 1 7 8 7 8 0 8 4
-1 15 -20 24 -28 18 -27 -19z"/>
<path d="M2160 1213 c0 -7 7 -16 17 -21 10 -6 14 -16 10 -26 -4 -10 -1 -16 7
-16 10 0 12 7 8 25 -4 13 -11 24 -16 24 -5 0 -13 5 -17 13 -6 9 -9 9 -9 1z"/>
<path d="M2346 1191 c7 -18 8 -30 3 -50 -2 -7 1 -15 8 -18 6 -2 14 10 18 27 4
19 16 35 28 40 21 8 21 9 2 11 -11 1 -30 3 -43 4 -18 2 -22 -1 -16 -14z"/>
<path d="M2128 1168 c-3 -15 -1 -25 3 -22 5 3 9 -5 9 -17 0 -12 -3 -19 -7 -16
-12 13 -30 -13 -25 -38 5 -28 27 -33 36 -9 4 12 2 15 -9 10 -9 -3 -15 0 -15 9
0 8 6 15 14 15 16 0 30 41 17 50 -5 3 -11 14 -13 25 -3 17 -5 15 -10 -7z"/>
<path d="M1549 1175 c-1 -3 -3 -9 -4 -15 -1 -5 -3 -13 -4 -17 -1 -5 -6 -1 -12
7 -8 12 -9 10 -4 -7 7 -24 -4 -30 -22 -12 -8 8 -13 8 -18 0 -4 -7 -1 -10 7 -9
7 2 12 -3 10 -10 -2 -10 2 -10 18 -2 11 6 20 16 20 21 0 6 6 9 13 6 10 -4 13
2 9 19 -4 22 -10 31 -13 19z"/>
<path d="M1170 1141 c0 -19 29 -33 47 -22 16 9 16 10 -4 11 -13 0 -23 5 -23
10 0 6 -4 10 -10 10 -5 0 -10 -4 -10 -9z"/>
<path d="M1927 1137 c-3 -9 -2 -17 3 -17 19 0 10 -21 -12 -29 -19 -7 -25 -4
-35 18 -7 14 -12 21 -13 14 0 -6 -2 -17 -5 -25 -3 -7 6 -18 20 -24 17 -8 25
-8 28 -1 2 6 9 7 15 3 18 -11 -12 -38 -32 -30 -10 4 -16 1 -16 -7 0 -7 3 -9 7
-6 3 4 12 2 19 -4 10 -9 15 -7 20 5 11 28 26 17 22 -16 -2 -25 1 -34 15 -36 9
-2 17 1 17 7 0 6 -5 11 -11 11 -6 0 -8 11 -4 29 4 21 2 30 -9 34 -21 8 -20 37
1 37 15 0 15 1 1 13 -9 6 -18 19 -20 26 -3 12 -6 12 -11 -2z"/>
<path d="M1036 1115 c-4 -15 -17 -30 -33 -36 -32 -12 -25 -22 10 -14 18 5 28
16 32 37 8 36 0 49 -9 13z"/>
<path d="M2013 1134 c-7 -3 -9 -12 -6 -20 6 -15 25 -20 21 -5 -2 5 2 9 7 9 6
0 9 -5 7 -11 -3 -9 0 -9 8 0 22 21 -4 40 -37 27z"/>
<path d="M2255 1109 c-4 -5 -13 -8 -20 -5 -8 3 -14 -6 -17 -25 -4 -27 -2 -29
29 -29 18 0 33 5 33 11 0 7 -10 9 -25 5 -19 -5 -23 -3 -19 8 3 8 14 13 25 11
11 -2 19 2 19 10 0 18 -17 28 -25 14z"/>
<path d="M1456 1076 c-27 -24 -32 -36 -17 -36 5 0 19 14 31 30 26 36 20 38
-14 6z"/>
<path d="M1551 1042 c0 -36 1 -36 12 -12 6 14 12 27 13 28 1 2 10 0 20 -6 11
-6 13 -11 5 -16 -14 -9 -14 -26 0 -26 5 0 8 4 5 8 -2 4 4 13 15 20 17 11 19 9
19 -13 0 -14 -7 -28 -15 -31 -8 -4 -15 -15 -15 -25 0 -14 -7 -19 -27 -19 -26
0 -26 0 -7 -21 l18 -20 8 20 c4 12 12 21 18 21 6 0 8 5 5 10 -3 6 -2 10 3 10
16 0 33 50 22 69 -5 10 -6 22 -2 26 4 4 -5 5 -20 1 -16 -3 -28 -3 -28 2 0 4
-11 9 -25 10 -23 2 -25 -2 -24 -36z"/>
<path d="M2005 1037 c10 -8 26 -12 34 -9 10 4 13 1 8 -12 -4 -10 -3 -15 3 -11
17 11 11 35 -9 35 -11 0 -28 3 -38 6 -16 6 -16 5 2 -9z"/>
<path d="M1165 1032 c-4 -4 -11 -8 -16 -8 -5 -1 -13 -2 -19 -3 -5 0 -10 -5
-10 -9 0 -5 14 -6 31 -4 24 4 30 2 24 -8 -5 -8 -4 -11 3 -6 6 3 15 -2 21 -11
5 -10 13 -15 16 -11 4 4 -4 21 -18 37 -13 16 -28 27 -32 23z"/>
<path d="M1290 992 c-14 -2 -29 -8 -35 -14 -7 -6 4 -7 30 -2 22 3 41 8 43 9 8
7 -15 11 -38 7z"/>
<path d="M1910 986 c0 -8 -3 -22 -7 -32 -6 -15 -2 -16 35 -11 22 4 52 3 66 -3
15 -5 26 -6 26 0 0 5 -9 12 -20 15 -11 3 -20 11 -20 16 0 5 -15 3 -33 -5 -33
-13 -34 -13 -29 10 2 14 0 24 -7 24 -6 0 -11 -6 -11 -14z"/>
<path d="M2878 993 c23 -2 61 -2 85 0 23 2 4 4 -43 4 -47 0 -66 -2 -42 -4z"/>
<path d="M885 961 c-16 -3 -29 -10 -27 -14 3 -10 2 -10 46 -2 28 6 41 4 47 -6
7 -11 9 -11 9 2 0 15 -22 31 -38 28 -4 -1 -20 -4 -37 -8z"/>
<path d="M1746 934 c-9 -8 -16 -23 -17 -32 0 -16 -1 -16 -7 0 -4 11 -12 14
-20 9 -9 -6 -8 -12 7 -25 18 -17 19 -17 26 3 3 12 13 21 22 21 13 0 13 -3 3
-15 -8 -9 -9 -15 -2 -15 18 0 24 20 12 35 -9 11 -9 15 -1 15 6 0 11 5 11 10 0
15 -16 12 -34 -6z"/>
<path d="M1863 859 c-22 -7 -33 -16 -33 -28 0 -11 -3 -26 -6 -34 -3 -8 2 -17
10 -20 11 -4 13 -1 9 11 -5 13 -3 14 6 6 17 -16 51 -6 51 15 0 11 3 12 8 4 6
-9 12 -8 24 7 16 17 15 20 -7 34 -14 9 -26 16 -27 15 -2 0 -18 -5 -35 -10z"/>
<path d="M1579 843 c5 -10 20 -28 34 -41 20 -19 32 -22 71 -18 25 2 46 0 46
-5 0 -5 -6 -9 -12 -9 -20 0 14 -20 35 -20 9 0 17 5 17 10 0 6 -5 10 -11 10 -6
0 -18 9 -27 20 -15 18 -21 19 -49 10 -27 -10 -36 -9 -57 7 -14 10 -28 26 -31
36 -4 9 -11 17 -16 17 -6 0 -6 -6 0 -17z"/>
<path d="M2591 833 c-1 -17 -9 -23 -33 -26 -32 -4 -32 -4 5 -5 l37 -2 0 -100
0 -100 -47 -2 -48 -1 45 -6 c25 -3 47 -3 48 2 2 4 48 7 103 7 l99 0 2 -67 2
-68 3 60 c2 33 10 63 16 67 8 5 6 8 -5 8 -15 0 -18 10 -20 53 l-2 52 -3 -47
-4 -48 -90 0 -89 0 0 89 c0 62 4 91 13 94 7 3 6 6 -5 6 -10 1 -18 11 -21 29
-3 21 -4 22 -6 5z"/>
<path d="M2893 803 c20 -2 54 -2 75 0 20 2 3 4 -38 4 -41 0 -58 -2 -37 -4z"/>
<path d="M710 795 c0 -3 14 -19 30 -37 36 -37 40 -25 5 15 -23 26 -35 33 -35
22z"/>
<path d="M1663 755 c-11 -8 -23 -11 -27 -8 -3 3 -6 0 -6 -9 0 -12 27 -17 50
-8 3 1 8 2 13 1 9 -1 9 11 -1 26 -6 10 -13 9 -29 -2z"/>
<path d="M1750 732 c0 -7 -11 -12 -25 -12 -14 0 -25 -5 -25 -11 0 -5 5 -7 11
-3 6 3 15 1 19 -6 6 -9 11 -7 20 10 6 12 9 24 6 28 -3 3 -6 0 -6 -6z"/>
<path d="M1909 735 c-1 -3 -2 -10 -3 -16 0 -6 -9 -16 -19 -24 -16 -12 -16 -13
8 -17 14 -3 30 1 36 8 8 10 5 11 -12 7 -17 -5 -20 -3 -13 8 9 16 14 39 8 39
-2 0 -5 -2 -5 -5z"/>
<path d="M1784 722 c4 -7 2 -12 -4 -12 -6 0 -8 -5 -5 -10 9 -15 -14 -40 -31
-33 -8 3 -14 0 -14 -6 0 -15 21 -13 43 3 21 16 30 53 15 62 -7 4 -8 2 -4 -4z"/>
<path d="M1621 676 c-11 -19 -20 -23 -50 -21 -20 1 -27 0 -16 -2 11 -3 25 -9
31 -14 17 -14 44 0 44 22 0 21 26 26 33 7 3 -10 10 -8 23 6 19 18 18 18 -3 11
-14 -4 -23 -2 -23 4 0 20 -27 11 -39 -13z"/>
<path d="M920 606 c0 -2 18 -15 40 -30 22 -14 40 -23 40 -19 0 5 -10 15 -22
23 -25 17 -58 31 -58 26z"/>
<path d="M2248 603 c17 -2 47 -2 65 0 17 2 3 4 -33 4 -36 0 -50 -2 -32 -4z"/>
<path d="M2373 603 c26 -4 27 -6 29 -71 l1 -67 6 65 c6 70 1 81 -39 78 -24 -1
-24 -1 3 -5z"/>
<path d="M1485 589 c7 -11 95 -12 95 -1 0 4 -23 8 -50 9 -29 1 -48 -2 -45 -8z"/>
<path d="M2878 593 c23 -2 61 -2 85 0 23 2 4 4 -43 4 -47 0 -66 -2 -42 -4z"/>
<path d="M2592 493 l-2 -82 -67 -4 -68 -3 73 -2 72 -2 0 -100 0 -100 -82 -2
-83 -2 80 -5 c44 -3 82 -3 83 2 2 4 48 7 103 7 l99 0 2 -67 2 -68 3 60 c2 33
10 63 16 67 8 5 6 8 -5 8 -15 0 -18 10 -20 53 l-2 52 -3 -47 -4 -48 -90 0 -89
0 0 89 c0 62 4 91 13 94 7 3 5 6 -5 6 -15 1 -18 14 -21 89 l-3 87 -2 -82z"/>
<path d="M1905 489 c-54 -22 -75 -36 -35 -24 37 12 107 44 95 44 -5 0 -32 -9
-60 -20z"/>
<path d="M1498 483 c18 -2 45 -2 60 0 15 2 0 4 -33 4 -33 0 -45 -2 -27 -4z"/>
<path d="M1478 453 c34 -2 90 -2 125 0 34 2 6 3 -63 3 -69 0 -97 -1 -62 -3z"/>
<path d="M2401 433 c-1 -31 -4 -33 -38 -35 -37 -1 -37 -1 -6 -5 29 -4 32 -7
36 -46 l4 -42 1 48 c2 44 4 47 30 48 22 1 23 2 5 6 -14 3 -23 13 -26 31 -4 24
-4 24 -6 -5z"/>
<path d="M2801 433 c-1 -31 -4 -33 -38 -35 -37 -1 -37 -1 -6 -5 29 -4 32 -7
36 -46 l4 -42 1 48 c2 44 4 47 30 48 22 1 23 2 5 6 -14 3 -23 13 -26 31 -4 24
-4 24 -6 -5z"/>
<path d="M2191 423 c0 -6 -13 -14 -28 -16 -26 -4 -26 -4 5 -6 l32 -1 0 -100 0
-100 -82 -2 -83 -2 80 -5 c44 -3 82 -3 83 2 2 4 48 7 103 7 l99 0 2 -67 2 -68
3 60 c2 33 10 63 16 67 8 5 6 8 -5 8 -15 0 -18 10 -20 53 l-2 52 -3 -47 -4
-48 -90 0 -89 0 0 89 c0 62 4 91 13 94 7 4 6 6 -5 6 -9 1 -19 9 -21 19 -3 9
-5 12 -6 5z"/>
<path d="M950 403 c24 -2 48 -10 53 -16 6 -8 7 -7 4 3 -2 11 -18 15 -53 16
l-49 1 45 -4z"/>
<path d="M1773 403 c21 -3 27 -10 28 -31 l1 -27 7 25 c9 29 -3 40 -39 38 -24
-1 -24 -1 3 -5z"/>
<path d="M1985 400 c-11 -5 -14 -9 -7 -9 9 -1 12 -26 12 -91 l0 -90 -89 0
c-62 0 -91 4 -94 13 -3 7 -6 5 -6 -5 -1 -16 -13 -18 -83 -20 l-83 -2 77 -3 77
-4 4 -62 3 -62 2 68 2 67 100 0 100 0 1 -32 c2 -28 2 -29 6 -8 3 14 10 28 17
32 7 5 5 8 -6 8 -16 0 -18 11 -18 100 l0 99 68 4 67 3 -65 1 c-36 1 -74 -2
-85 -7z"/>
<path d="M2893 403 c20 -2 54 -2 75 0 20 2 3 4 -38 4 -41 0 -58 -2 -37 -4z"/>
<path d="M1400 218 c0 -16 -11 -18 -82 -20 l-83 -2 77 -3 77 -4 4 -62 3 -62 2
68 2 67 100 0 100 0 1 -32 c2 -28 2 -29 6 -8 3 14 10 28 17 32 7 5 5 8 -6 8
-10 0 -18 3 -18 8 0 4 -41 6 -91 4 -68 -3 -94 0 -100 10 -7 10 -9 9 -9 -4z"/>
<path d="M2878 193 c23 -2 61 -2 85 0 23 2 4 4 -43 4 -47 0 -66 -2 -42 -4z"/>
</g>
</svg>
